<svg width="40" height="40" viewBox="0 0 40 40" fill="none" xmlns="http://www.w3.org/2000/svg">
  <circle cx="20" cy="20" r="20" fill="#1769FF"/>
  <path d="M10 14h6.5c1.5 0 2.7.4 3.4 1.1.7.7 1.1 1.6 1.1 2.7 0 1.3-.6 2.2-1.7 2.8 1.4.5 2.2 1.6 2.2 3.2 0 1.2-.4 2.2-1.3 2.9-.9.7-2 1.1-3.4 1.1H10V14zm6 5.5c.8 0 1.4-.1 1.8-.4.4-.3.6-.8.6-1.4 0-.6-.2-1-.6-1.3-.4-.3-1-.4-1.8-.4h-3v3.5h3zm.3 6.3c.9 0 1.6-.2 2-.5.4-.3.7-.9.7-1.6 0-.7-.2-1.2-.7-1.6-.4-.3-1.1-.5-2-.5h-3.3v4.2h3.3zM24 14h7v1.8h-7V14zm3.5 4.5c1.3 0 2.3.4 3.1 1.1.8.7 1.2 1.8 1.2 3.2v.8H25c.1.8.4 1.5.9 1.9.5.4 1.2.7 2 .7 1.1 0 1.9-.5 2.3-1.3h2.5c-.3 1-.9 1.8-1.7 2.4-.8.6-1.9.9-3.1.9-1.5 0-2.7-.5-3.6-1.4-.9-.9-1.3-2.2-1.3-3.7 0-1.5.4-2.7 1.3-3.6.9-.7 2.1-1 3.2-1zm2.3 3.6c-.1-.7-.4-1.3-.9-1.7-.5-.4-1-.6-1.7-.6-.6 0-1.2.2-1.6.6-.5.4-.8.9-.9 1.7h5.1z" fill="white"/>
</svg>
